<svg width="400" height="400" viewBox="0 0 400 400" fill="none" xmlns="http://www.w3.org/2000/svg">
<rect width="400" height="400" fill="white"/>
<path d="M97.0951 152.885C97.1595 144.407 101.088 129.44 105.917 114.667C107.205 110.813 108.429 106.959 109.717 103.105C112.486 95.0117 120.793 90.7081 128.456 93.4058C136.505 96.2321 140.434 104.39 137.6 112.611C133.801 123.403 129.679 134.065 127.812 145.434C126.653 152.179 125.687 158.923 126.46 165.86C128.005 179.992 135.861 189.819 147.71 196.949C152.025 199.518 156.533 201.766 161.169 203.758C168.961 207.162 172.374 215.769 169.025 223.22C165.677 230.735 157.048 233.883 149.256 230.35C136.699 224.698 124.721 218.017 115.319 207.676C102.569 193.93 96.9019 178.771 97.0951 152.885Z" fill="#038DCC"/>
<path d="M239.088 83.1928C244.755 83.1928 250.422 83.1285 256.153 83.1928C264.267 83.3212 271.028 90.1942 270.835 98.0306C270.578 106.638 263.559 112.933 254.929 112.547C241.02 111.841 227.11 111.327 213.265 113.896C200.644 116.273 189.89 121.604 183.064 132.973C177.912 141.645 176.109 151.28 174.95 161.107C173.662 172.605 162.199 178.643 152.475 172.862C147.581 169.907 144.877 165.282 145.521 159.694C147.066 145.691 150.093 132.074 157.112 119.677C167.737 100.985 184.287 90.5795 204.894 86.019C216.163 83.4497 227.561 82.6147 239.088 83.1928Z" fill="#604993"/>
<path d="M238.187 128.926C269.29 128.926 290.348 144.021 304.386 170.421C311.534 183.845 315.913 198.298 320.356 212.622C322.803 220.458 317.909 228.294 309.924 230.543C302.261 232.726 294.34 228.23 291.893 220.137C289.768 212.943 287.772 205.749 285.132 198.747C281.397 188.791 276.953 179.221 269.87 171.127C260.726 160.722 248.941 157.124 235.482 158.088C229.944 158.473 224.406 159.437 218.997 160.657C211.141 162.52 203.284 157.638 201.417 149.93C199.549 142.03 204.186 134.001 212.171 132.138C217.065 130.982 222.088 130.339 227.046 129.633C230.846 129.119 234.71 128.798 238.187 128.926Z" fill="#BB1083"/>
<path d="M159.688 281.158C144.748 281.222 132.191 277.112 120.213 271.138C107.399 264.779 95.8073 256.429 84.4092 247.886C78.1628 243.197 77.2613 233.819 82.1554 227.46C86.9207 221.293 96.0005 220.009 102.633 224.89C109.33 229.836 115.963 234.975 123.111 239.343C130.968 244.16 139.146 248.464 148.161 250.776C163.874 254.823 176.817 249.427 188.087 238.765C191.242 235.746 194.269 232.534 197.167 229.194C202.576 222.899 211.849 222.193 217.902 227.46C224.148 232.919 224.857 242.169 219.319 248.4C207.985 261.182 195.299 272.23 178.685 277.754C171.988 280.066 165.291 281.287 159.688 281.158Z" fill="#2F9540"/>
<path d="M273.089 233.754C273.154 252.896 266.006 267.862 254.608 281.222C243.145 294.647 228.849 304.667 214.489 314.623C207.921 319.184 198.326 316.807 194.14 310.063C189.761 303.061 192.015 294.069 199.292 289.316C210.754 281.8 221.959 273.9 231.297 263.687C239.475 254.758 244.82 244.738 244.111 232.213C243.532 221.678 239.024 212.429 233.872 203.501C229.3 195.6 230.717 187.057 237.479 182.496C244.111 178.064 253.578 179.477 257.634 186.35C266.457 201.317 273.283 217.054 273.089 233.754Z" fill="#F4802B"/>
</svg>
